/* XPM */
static char *sprite_eyeball_data[] = {
/* columns rows colors chars-per-pixel */
"128 96 12 1 ",
"  c #381228",
". c #5F123F",
"X c #1C4174",
"o c #C35D23",
"O c #9D236B",
"+ c #E1954B",
"@ c #F1C65D",
"# c #295EA6",
"$ c #CE4094",
"% c #FD70C4",
"& c #FFA8DC",
"* c None",
/* pixels */
"***********************************************************************&**&************&**&*************************************",
"*******************************************************&**&************%**%************%**%******&************&*****************",
"*&***********&***&***.....***&***&***.....***&*********%**%**********.....***********.....*******&***......***&**&************&*",
"*&***.....***&****%*.#####.*%*****%*.#####.*%********.....**********.####..**&******.####..**&****%*.######.*%***&***......***&*",
"**%*.#####.*%******$O######.*******$O######.****&***.####..**&**&&*.####..@.%***&&*.####..@.%***&**$########.**&**%*.######.*%**",
"&**$O######.**&*&%.#..######.%&*&%.#..######.%&**&*.####..@.%*****%$O##.@..@.*****%$O##.@..@.****%$..########.%*&**$########.**&",
"*%.#..######.%****$Oo........*****$Oo........*****%$O##.@..@.*****.#...+@@.@.*****.#...+@@.@.*****.o..........***%$..########.%*",
"**$Oo........*****.##oo++@.+.*****.##oo++@.+.*****.#...+@@.@.*****.Oooo++@@#.*****.Oooo++@@#.***&*.#oo++@..@+.*&**.o..........**",
"&*.##oo++@.+.*&*&%$OO##++@.+.%&*&%$OO##++@.+.%&*&*.Oooo++@@#.***&%$X########.***&%$X########.****%$X##++@..@+.%*&*.#oo++@..@+.*&",
"*%$OO##++@.+.%****.XX####@@#.*****.XX####@@#.****%$X########.*****.XO#######.*****.XO#######.*****.XX###@@@#X.***%$X##++@..@+.%*",
"**.XX####@@#.******.XXX####.*******.XXX####.******.XO#######.******OXXX####.*******OXXX####.*******.XXX####X.*****.XX###@@@#X.**",
"***.XXX####.********.XXXXX.*********.XXXXX.*****&**OXXX####.****&%$*.XXXXX.*****&%$*.XXXXX.*********.XXXXXX.*******.XXX####X.***",
"****.XXXXX.**********.....**********.......*..***%$*.XXXXX.**********.....**********.......*..******* .... *********.XXXXXX.****",
"***** ....********** .** ..******** .**** ...******** ....********** .** ..******** .**** ...******** .**. ********** .... *****",
"***** .* .********** .*** ...****** .***** .********* .* .********** .*** ...****** .***** .********* .**. ********** .**. *****",
"**** .......******* .... ...****** ....** .********* .......******* .... ...****** ....** .********* ...... ******** ...... ****",
"***********************************************************************&**&************&**&*************************************",
"*******************************************************&**&************%**%************%**%*************************************",
"*&***********&***&***.....***&***&***.....***&*********%**%**********.....***********.....*******&***......***&**&************&*",
"*&***.....***&****%*.#####.*%*****%*.#####.*%********.....**********.####..**&******.####..**&****%*.######.*%***&***......***&*",
"**%*.#####.*%******$O######.*******$O######.****&***.####..**&**&&*.####..@.%***&&*.####..@.%******.########.*****%*.######.*%**",
"&**$O######.**&*&%.#..######.%&*&%.#..######.%&**&*.####..@.%*****%$O##.@..@.*****%$O##.@..@.***&%..########..%&&**.########.**&",
"*%.#..######.%****$Oo........*****$Oo........*****%$O##.@..@.*****.#...+@@.@.*****.#...+@@.@.*****.o........o.***%..########..%*",
"**$Oo........*****.##oo++@.+.*****.##oo++@.+.*****.#...+@@.@.*****.Oooo++@@#.*****.Oooo++@@#.*****.#++@..@++#.****.o........o.**",
"&*.##oo++@.+.*&*&%$OO##++@.+.%&*&%$OO##++@.+.%&*&*.Oooo++@@#.***&%$X########.***&%$X########.***&%.##+@..@+##.%&&*.#++@..@++#.*&",
"*%$OO##++@.+.%****.XX####@@#.*****.XX####@@#.****%$X########.*****.XO#######.*****.XO#######.*****.X##@@@@##X.***%.##+@..@+##.%*",
"**.XX####@@#.******.XXX####.*******.XXX####.******.XO#######.******OXXX####.*******OXXX####.*******.X######X.*****.X##@@@@##X.**",
"***.XXX####.********.XXXXX.*********.XXXXX.*****&**OXXX####.****&%$*.XXXXX.*****&%$*.XXXXX.*********.XXXXXX.*******.X######X.***",
"****.XXXXX.**********.....***********.....*******%$*.XXXXX.**********.....***********.....*********** .... *********.XXXXXX.****",
"*****.....************ ..**********  ..* ...*********.....************ ..**********  ..* ...********* .**. ********** .... *****",
"****** . .********** ......*********..** ..*********** . .********** ......*********..** ..********** .**. ********** .**. *****",
"***** .....**********.....***********..* .*********** .....**********.....***********..* .********** ...... ******** ...... ****",
"*******************************************************&**&************&**&************&**&*************************************",
"*****************&***********&***&***********&*********%**%************%**%************%**%*************************************",
"*&***.....***&***&***.....***&***&***.....***&*******.....***********.....***********.....*******&***......***&**&************&*",
"**%*.#####.*%*****%*.#####.*%*****%*.#####.*%*******.####..**&******.####..**&******.####..**&****%*.######.*%***&***......***&*",
"***$O######.****&**$O######.**&*&**$O######.**&*&&*.####..@.%***&&*.####..@.%***&&*.####..@.%******.########.*****%*.######.*%**",
"&%.#..######.%&**%.#..######.%***%.#..######.%****%$O##.@..@.*****%$O##.@..@.*****%$O##.@..@.***&%.##########.%&&**.########.**&",
"**$Oo........*****$Oo........*****$Oo........*****.#...+@@.@.*****.#...+@@.@.*****.#...+@@.@.*****..########..***%.##########.%*",
"**.##oo++@.+.***&*.##oo++@.+.*&*&*.##oo++@.+.*&***.Oooo++@@#.*****.Oooo++@@#.*****.Oooo++@@#.*****.#........#.****..########..**",
"&%$OO##++@.+.%&**%$OO##++@.+.%***%$OO##++@.+.%**&%$X########.***&%$X########.***&%$X########.***&%.##+@..@+##.%&&*.#........#.*&",
"**.XX####@@#.*****.XX####@@#.*****.XX####@@#.*****.XO#######.*****.XO#######.*****.XO#######.*****.X##@@@@##X.***%.##+@..@+##.%*",
"***.XXX####.*******.XXX####.*******.XXX####.*******OXXX####.*******OXXX####.*******OXXX####.*******.X######X.*****.X##@@@@##X.**",
"****.XXXXX.*********.XXXXX.*********.XXXXX.*****&%$*.XXXXX.*****&%$*.XXXXX.*****&%$*.XXXXX.*********.XXXXXX.*******.X######X.***",
"*** ......********* .......********** ....********* ......********* .......********** ....*********** .... *********.XXXXXX.****",
"** ..* .*********  ..**** ..*..****** .* ..*..**** ..* .*********  ..**** ..*..****** .* ..*..******* .**. ********** .... *****",
"***..**..*********..****** ...******* ... ...******..**..*********..****** ...******* ... ...******** .**. ********** .**. *****",
"****..**..*********..****** .******* ..*** .********..**..*********..****** .******* ..*** .******** ...... ******** ...... ****",
"******************************************************************&***&***&*******&***&***&*************************************",
"**************************************************&***&***&********%**%***&********%**%***&*************************************",
"***************************************************%**%***&********$*.$..%*********$*.$..%*******&***......***&**&************&*",
"***************************************************$*.$..%**********OXXO#$.*********OXXO#$.*******%*.######.*%***&***......***&*",
"****************************************************OXXO#$.********.XO#o.O#.*******.XO#o.O#.*******.########.*****%*.######.*%**",
"***************************************************.XO#o.O#.******.XX##o.###.*****.XX##o.###.***&%.##########.%&&**.########.**&",
"**************************************************.XX##o.###.*****.XX##o.###.*****.XX##o.###.*****.##########.***%.##########.%*",
"**************************************************.XX##o.###.*&***.X###++.##.%&***.X###++.##.%&***..########..****.##########.**",
"**************************************************.X###++.##.%****.X###+@@.#.*****.X###+@@.#.***&%.#..####..#.%&&*..########..*&",
"**************************************************.X###+@@.#.*****.X###@@....*****.X###@@....*****.X##....##X.***%.#..####..#.%*",
"**************************************************.X###@@....*&****.###@..@.*%&****.###@..@.*%&****.X######X.*****.X##....##X.**",
"***************************************************.###@..@.*%******.###@@.*********.###@@.*********.XXXXXX.*******.X######X.***",
"****************************************************.###@@.**********.....%&********.......&..******* .... *********.XXXXXX.****",
"***************************************************** ....%&******** .** ..******** .**** ...******** .**. ********** .... *****",
"***************************************************** .* .********** .*** ...****** .***** .********* .**. ********** .**. *****",
"**************************************************** .......******* .... ...****** ....** .********* ...... ******** ...... ****",
"******************************************************************&***&***&*******&***&***&*************************************",
"**************************************************&***&***&********%**%***&********%**%***&*************************************",
"***************************************************%**%***&********$*.$..%*********$*.$..%**************************************",
"***************************************************$*.$..%**********OXXO#$.*********OXXO#$.*************************************",
"****************************************************OXXO#$.********.XO#o.O#.*******.XO#o.O#.************************************",
"***************************************************.XO#o.O#.******.XX##o.###.*****.XX##o.###.***********************************",
"**************************************************.XX##o.###.*****.XX##o.###.*****.XX##o.###.***********************************",
"**************************************************.XX##o.###.*&***.X###++.##.%&***.X###++.##.%&*********************************",
"**************************************************.X###++.##.%****.X###+@@.#.*****.X###+@@.#.***********************************",
"**************************************************.X###+@@.#.*****.X###@@....*****.X###@@....***********************************",
"**************************************************.X###@@....*&****.###@..@.*%&****.###@..@.*%&*********************************",
"***************************************************.###@..@.*%******.###@@.*********.###@@.*************************************",
"****************************************************.###@@.**********.....%&*********.....%&************************************",
"*****************************************************.....%&********** ..**********  ..* ...************************************",
"****************************************************** . .********** ......*********..** ..*************************************",
"***************************************************** .....**********.....***********..* .**************************************",
"**************************************************&***&***&*******&***&***&*******&***&***&*************************************",
"***************************************************%**%***&********%**%***&********%**%***&*************************************",
"***************************************************$*.$..%*********$*.$..%*********$*.$..%**************************************",
"****************************************************OXXO#$.*********OXXO#$.*********OXXO#$.*************************************",
"***************************************************.XO#o.O#.*******.XO#o.O#.*******.XO#o.O#.************************************",
"**************************************************.XX##o.###.*****.XX##o.###.*****.XX##o.###.***********************************",
"**************************************************.XX##o.###.*****.XX##o.###.*****.XX##o.###.***********************************",
"**************************************************.X###++.##.%&***.X###++.##.%&***.X###++.##.%&*********************************",
"**************************************************.X###+@@.#.*****.X###+@@.#.*****.X###+@@.#.***********************************",
"**************************************************.X###@@....*****.X###@@....*****.X###@@....***********************************",
"***************************************************.###@..@.*%&****.###@..@.*%&****.###@..@.*%&*********************************",
"****************************************************.###@@.*********.###@@.*********.###@@.*************************************",
"*************************************************** ......%&******* .......&********* ....%&************************************",
"************************************************** ..* .*********  ..**** ..*..****** .* ..*..**********************************",
"***************************************************..**..*********..****** ...******* ... ...***********************************",
"****************************************************..**..*********..****** .******* ..*** .************************************"
};
