/* XPM */
static char *sprite_kirbo_data[] = {
/* columns rows colors chars-per-pixel */
"32 32 4 1 ",
"  c black",
". c #EF9A9A",
"X c #FFCDD2",
"o c None",
/* pixels */
"oooooooooooooooooooooooooooooooo",
"oooooooooooooooooooooooooooooooo",
"oooooooooooooooooooooooooooooooo",
"oooooooooooooooooooooooooooooooo",
"oooooooooooooooooooooooooooooooo",
"oooooooooooooooooooooooooooooooo",
"oooooooooooooooooooooooooooooooo",
"oooooooooooooooooooooooooooooooo",
"oooooooooooooooooooooooooooooooo",
"oooooooooooooooooooooooooooooooo",
"ooooooooooooo      ooooooooooooo",
"oooooooooooo ...... oooooooooooo",
"ooooooooooo ........ ooooooooooo",
"oooooooooo .. .... .. oooooooooo",
"ooooooooo ............ ooooooooo",
"oooooooo  ............  oooooooo",
"                                ",
" XXXXXXXX XXXXXXXXXXXX XXXXXXXX ",
"          XXXXXXXXXXXX          ",
"oooooooo  XXXXXXXXXXXX  oooooooo",
"ooooooooo XXXXXXXXXXXX ooooooooo",
"ooooooooo XXXXXXXXXXXX ooooooooo",
"ooooooooo XXXXXXXXXXXX ooooooooo",
"ooooooooo XXXXXXXXXXXX ooooooooo",
"ooooooooo XXXXXXXXXXXX ooooooooo",
"ooooooooo XXXXXXXXXXXX ooooooooo",
"ooooooooo              ooooooooo",
"ooooooooo  X oooooo X  ooooooooo",
"oooooooooo X oooooo X oooooooooo",
"oooooooooo X oooooo X oooooooooo",
"oooooooooo X oooooo X oooooooooo",
"oooooooooo   oooooo   oooooooooo"
};
