/* XPM */
static char *room_room2_tileset_data[] = {
/* columns rows colors chars-per-pixel */
"128 96 19 1 ",
"  c black",
". c #0A090A",
"X c #0F0D0F",
"o c #141314",
"O c #151F19",
"+ c #15241B",
"@ c #23381B",
"# c #261F26",
"$ c #3D333D",
"% c #334D28",
"& c #436336",
"* c #2C1954",
"= c #452D75",
"- c #9D236B",
"; c #CE4094",
": c #8E6ECC",
"> c #FD70C4",
", c #DDCCFF",
"< c None",
/* pixels */
"                                                                                 X            .. X            .. X     X<<<<<<<<",
"                                                                                 .     X   X  .  .     X   X  .  .     .<<<<<<<<",
"   ,                                                                               XX  .  X.X      XX  .  X.X      XX   X<<<<<<<",
"                                                                                  X..      ....   X..      ....   X..   .<<<<<<<",
"                                                        = = =                     .   X    ..     .   X    ..     .   X  <<<<<<<",
"                      ,                                   :                      X.   .  X..     X.   .  X..     X.   . X<<<<<<<",
"             ,                                          =:,:=                    .       ..  XX  .       ..  XX  .      .<<<<XX<",
"                                                          :                          X  ..  X..X     X  ..  X..X     X .<.<<X..X",
"                                     ,                  = = =                   .   X.X  .  X. ..   X.X  .  X. ..   X.X< .  X. .",
"                                                                                .   . .     ..  .   . .     .. <.   . .     ..  ",
"                                                                                 .        X   X  .        X   X< .        X   X ",
"                                          ,                                       XX      .. X.   XX      .. X.<  XX      .. X. ",
"       ,                                                                          ..X   X  ...    ..X   X  ...<<  ..X   X  ...  ",
"                                                                                    ...X.X          ...X.X <<<<<    ...X.X      ",
"                                                                                 X    .. .  XX   X    .. .<<<<<< X    .. .  XX  ",
"                                                                                ..  .       ......  .    <<<<<<<..  .       ....",
" X            .. X     X<<<<<<<< X      <<<<<<<<<<<<<<<<<<<<<<<< X       <<<<<<< X            ..<<<<<<<<      .. X      <<<<<<<<",
" .     X   X  .  .     .<<<<<<<< .     X<<<<<<<<<<<<<<<<<<<<<<<< .     X  <X<<<< .     X   X  . <<<<<<<<<. X. .  .     X<<<<<<<<",
"   XX  .  X.X      XX   X<<<<<<<   XX  .<<<<<<<<<<<<<<<<<<<<<<<<   XX  .  X.X<<<   XX  .  X.X   <<<<<<<<<<X<<      XX  .<<<<<<<<",
"  X..      ....   X..   .<<<<<<<  X..  <<<<<<<<<<<<<<<<<<<<<<<<<  X..      ....<  X..      .... <<<<<<<<<<<<<.    X..  <<<<<<<<<",
"  .   X    ..     .   X  <<<<<<<  .   X<<<<<<<<<<<<<<<<<<<<<<<<<  .   X    .. <<  .   X    ..   <<<<<<<<<<<<<<.   .   X<<<<<<<<<",
" X.   .  X..     X.   . X<<<<<<< X.   .<<<<<<<<<<<<<<<<<<<<<<<<< X.   .  X..   < X.   .  X..    <<<<<<<<<<<<<<<. X.   .<<<<<<<<<",
" .       ..  XX  .      .<<<<<<< .    <<<<<<<<<<<<<<<<<<<<<<<<<< .       ..  XX< .       ..  XX <<<<<<<<<<<<<<<. .    <<<<<<<<<<",
"     X ...  X..X     X .<<<<<<<<     <<<<<<<<<<<<<<<<<<<<<<<<<<<     X  ..  X..X     X  ..  X..X<<<<<<<<<<<<<<<<     <<<<<<<<<<<",
".   X.X<<.  X. ..   X.X<<<<<<<<<<<  <<<<<<<<<<<<X<<<<<<<<<<<<<<<.   X.X  .  X. ..   X.X  .  X. .X<<<<<<<<<<<<<<<<<  <<<<<<<<<<<<",
".   . .<<<  .. <.   . .<<<<<<<<<<<<<<<<<<<<<<<<<.<<<<<<<<<<<<<<<.   . .     ..  .   . .     ..  .<<<<<<<<<<<<<<<<<<<<<<<<<<<<<<<",
" .     .<<<   << .     .<<<<<<<<<<<<<<<<<<<<<<<<.X<<<<<<<<<<<<<< .        X   X <.        X   X .X<<<<<<<<<<<<<<<<<<<<<<<<<<<<<<",
"  XX    <<<<<<<<  XX    <<<<<<<<<<<<<<<<<<<<<<<< .XX<<<<<<<<<<<<  XX      .. X. <<XX      .. X.  .XX<<<<<<<<<<<<<<<<<<<<<<<<<<<<",
"  ..X   X<<<<<<<  ..X   X<<<<<<<<<<<<<<<<<<<<<<<  ..X<<<X<<<<<<<  ..X   X  ...  <<..X   X  ...    ..X<<<X<<<<<<<<<<<<<<<<<<<<<<<",
"    ...X.X<<<<<<    ...X.X<<<<<<<<<<<<<<<<<<<<<<    ...X.X<<<<<<    ...X.X      <<<<...X.X          ...X.X<<<<<<<<<<<<<<<<<<<<<<",
" X    .. .<<<<<< X    .. .<<<<<<<<<<<<<<<<<<<<<< X    .. .<<<<<< X    .. .  XX  <<<<<<.. .  XX   X    .. .<<<<<<<<<<<<<<<<<<<<<<",
"..  .    <<<<<<<..  .    <<<<<<<<<<<<<<<<<<<<<<<..  .    <<<<<<<..  .       ....<<<<<<<<    ......  .    <<<<<<<<<<<<<<<<<<<<<<<",
" X            ..<<<<<<<<<<<<<<<< X     X<<<<<<<<<<<<<<<<<<<<<<<<<<<<<<<<<     ..<<<<<<<<<     ..<<<<<<<<      ..<<<<<<<<      ..",
" .     X   X  . <<<<<<<<<<<<<<<< .     .<<<<<<<<<<<<<<<<<<<<<<<<<<<<<<<<<< X  . <<<<<<<<<< X  . <<<<<<<X   X  . <<<<<<<<<. X. . ",
"   XX  .  X.X   <<<<<<<<<<<<<<<<   XX   X<<<<<<<<<<<<<<<<<<<<<<<<<<<<<<<<<X.X   <<<<<<<<<<X.X   <<<XX< .  X.X   <<<<<<<<<<X<<   ",
"  X..      .... <<<<<<<<<<<<<<<<  X..   .<<<<<<<<<<<<<<<<<<<<<<<<<<<<<<<<<<.... <<<<<<<<<<<.... <<X..      .... <<<<<<<<<<<<<.  ",
"  .   X    ..   <<<<<<<<<<<<<<<<  .   X  <<<<<<<<<<<<<<<<<<<<<<<<<<<<<<<<< ..   <<<<<<<<<< ..   <<.   X    ..   <<<<<<<<<<<<<<. ",
" X.   .  X..    <<<<<<<<<<<<<<<< X.   . X<<<<<<<<<<<<<<<<<<<<<<<<<<<<<<<<X..    <<<<<<<<<X..    <X.   .  X..    <<<<<<<<<<<<<<<.",
" .       ..  XX <<<<<<<<<<<<<XX< .      .<<<<<<<<<<<<<<<<<<<<XX<<<<<<<<<<..  XX <<<<<<<<<..  XX <.       ..  XX <<<<<<<<<<<<<<<.",
"     X  ..  X..X<<<<<X<<..<<X..X     X .<<<<<<<<<<<<<<<<<<<<X..X<<<<<X<<..  X..X<<<<<<<<..  X..X<    X  ..  X..X<<<<<<<<<<<<<<<<",
"<   X.X  .  X. ..<<<X.X  .  X. ..   X.X<<<<<<<<<<<<<<<<<<<<<X. ..<<<X.X  .  X. .<<<<<<<<<.  X. ..   X.X  .  X. .<<<<<<<<<<<<<<<<",
"<   . .     .. <.   . .     ..  .   . .<<<<<<<<<<<<<<<<<<<<<..  .   . .     ..  <<<<<<<<<   ..  .   . .     ..  <<<<<<<<<<<<<<<<",
"<<        <   << .        X   X  .     .<<<<<<<<<<<<<<<<<<X<  X  .        X   X <<<<<<<<< X   X  .        X   X <<<<<<<<<<<<<<<<",
"<<<<     <<<<<<<  XX      .. X.   XX    <<<<<<<<<<<<<<<<<... X.   XX      .. X. <<<<<<<<< .. X.   XX      .. X. <<<<<<<<<<<<<<<<",
"<<<<<   <<<<<<<<  ..X   X  ...    ..X   X<<<<<<<<<<<<<<<X. ...    ..X   X  ...  <<<<<<<<X  ...    ..X   X  ...  <<<<<<<<<<<<<<<<",
"<<<<<<<<<<<<<<<<    ...X.X          ...X.X<<<<<<<<<<<<<X.X          ...X.X      <<<<<<<X.X          ...X.X      <<<<<<<<<<<<<<<<",
"<<<<<<<<<<<<<<<< X    .. .  XX   X    .. .<<<<<<<<<<<<<. .  XX   X    .. .  XX  <<<<<<<. .  XX   X    .. .  XX  <<<<<<<<<<<<<<<<",
"<<<<<<<<<<<<<<<<..  .       ......  .    <<<<<<<<<<<<<<<    ......  .       ....<<<<<<<<    ......  .       ....<<<<<<<<<<<<<<<<",
" X            ..<<<<<<<<<<<<<<<<<<<<<<<<<<<<<<<<<<<<<<<<<<<<<<<<oo            oo<<<<<<<<<<<<<<<<<<<<<<<<<<<<<<<<<<<<<<<<<<<<<<<<",
" .     X   X  . <<<<<<<<<<<<<<<<<<<<<<<<<<<<<<<<<<<<<<<<<<<<<<<<$$            $$<<<<<<<<<<<<<<<<<<<<<<<<<<<<<<<<<<<<<<<<<<<<<<<<",
"   XX  .  X.X   <<<<<<<<<<<<<<<<<<<<<<<<<<<<<<<<<<<<<<<<<<<<<<<<$#            #$<<<<<<<<<<<<<<<<<<<<<<<<<<<<<<<<<<<<<<<<<<<<<<<<",
"  X..      .... <<<<<<<<<<<<<<<<<<<<<<<<<<<<<<<<<<<<<<<<<<<<<<<<##            ##<<<<<<<<<<<<<<<<<<<<<<<<<<<<<<<<<<<<<<<<<<<<<<<<",
"  .   X    ..   <<<<<<<<<<<<<<<<<<<<<<<<<<<<<<<<<<<<<<<<<<<<<<<<oo            oo<<<<<<<<<<<<<<<<<<<<<<<<<<<<<<<<<<<<<<<<<<<<<<<<",
" X.   .  X..    <<<<<<<<<<<<<<<<<<<<<<<<<<<<<<<<<<<<<<<<<<<<<<<<$$            $$<<<<<<<<<<<<<<<<<<<<<<<<<<<<<<<<<<<<<<<<<<<<<<<<",
" .       ..  XX <<<<<<<<<<<<<<<<<<<<<<<<<<<<<<<<<<<<<<<<<<<<<<<<$#            #$<<<<<<<<<<<<<<<<<<<<<<<<<<<<<<<<<<<<<<<<<<<<<<<<",
"     X  ..  X..X<<<<<<<<<<<<<<<<<<<<<<<<<<<<<<<<<<<<<<<<<<<<<<<<##            ##<<<<<<<<<<<<<<<<<<<<<<<<<<<<<<<<<<<<<<<<<<<<<<<<",
"<   X.X <.  X. .<<<<<<<<<<<<<<<<<<<<<<<<<<<<<<<<<<<<<<$$$$<<<<<<oo            oo<<<<<<<<<<<<<<<<<<<<<<<<<<<<<<<<<<<<<<<<<<<<<<<<",
"<   . .<<   ..  <<<<<<<<<<<<<<<<<<<<<<<<<<<<<<<<<<<<$o####o$<<<<$$            $$<<<<<<<<<<<<<<<<<<<<<<<<<<<<<<<<<<<<<<<<<<<<<<<<",
"<<    <<< X   X <<<<<<<<<<<<<<<<<<<<<<<<<<<<<<<<<<<$$#    #$$<<<$#            #$<<<<<<<<<<<<<<<<<<<<<<<<<<<<<<<<<<<<<<<<<<<<><<<",
"<<<< <<<< .. X. <<<<<<<<<<<<<<<<<<;-;<<<<<<<<<<<<<#$#      #$#<<##            ##<<<<<<<<<<<<<<<<<<<<<<<<<<<<<<<<<<<<<<<<<<-@%<<<",
"<<<<<<<<X  ...  <<<<<<<<<*=<<<<<<>---><<<<<<<<<<<$o#        #o$<oo            oo<<<<<<<<<<<<<<<<<<<<<<<<<<<<<<<<<<<<<=<<<<<%-<<<",
"<<<<<<<X.X      <<<<<<<<==*<<<<<<<<%<@<<<=<<<<<<<$#          #$<$$            $$<<<<<<<<<<<<<<<<<<<<<<<<<<<<<<<<<<<*<%<<<-%@<<<<",
"<<<<<<<. .  XX  <<<<<<<<<*%<<<<<<<&%@<<<*=*<=<<<$#            #$$#            #$<<<<><<<<<<<<<<<<<-<<<<<<=<<*<<<<=<&%<<*<<@-<<<<",
"<<<<<<<<    ....<<<<<<<<<<<@<<<<<<<&@<<<<&<@*<<<##            ####o$$o$$$$o$$o##<<><@<<<<<<<<<<<<<<&<><<*@<@<<<<<<%<&@%<<<%<<<<<",
"..###oo..#..oooo..###oo..#..oooo..###oo..#..+@<<..###oo..#..+@<<..###oo..#..+@<<<<%&&<@<<&%@<<<<<<%&&<@<<&%@<<<<..###oo..#..oooo",
".#ooo#o....####..#ooo#o....####..#ooo#o....#@%&<.#ooo#o....#@%&<.#ooo#o....#@%&<<@oooOo%@..+@%&<<@oooOo%@..+@%&<.#ooo#o....####.",
".o..o#oo..#oooo#.o..o#oo..#oooo#.o..o#oo..#oooo&.o..o#oo..#oooo&.o..o#oo..#oooo&%o..oOo@..+oooo&%o..oOo@..+oooo&.o..o#oo..#oooo#",
"#....o...#oo..oo#....o...#oo..oo#....o...#oo..o%#....o...#oo..oo#....o...#oo..o%@....o...Ooo..o%@....o...Ooo..oo#....o...#oo..oo",
"...##....#o........##....#o........##....#o...o<...##....#o........##....#o...o<...##....#o...o<...##....#o........##....#o.....",
"..#oo#..o#........#oo#..o#........#oo#..o#....#<..#oo#..o#........#oo#..o#....#<..#oo#..o#....#<..#oo#..o#........#oo#..o#......",
"o#oooo#o......ooo#oooo#o......ooo#oooo#o.....@<<o#oooo#o......ooo#oooo#o.....@<<o#oooo#o.....@<<o#oooo#o......ooo#oooo#o......oo",
"o#o..o#..oo.o...o#o..o#..oo.o...o#o..o#..oo.@<<<o#o..o#..oo.o...o#o..o#..oo.@<<<o#o..o#..oo.@<<<o#o..o#..oo.o...o#o..o#..oo.o...",
"oo............#.oo............#.oo..........+%&<oo............#.oo..........+%&<oo..........+%&<oo............#.oo............#.",
"o...o...##...#o#o...o...##...#o#o...o...##...+o%o...o...##...#o#o...o...##...+o%o...o...##...+o%o...o...##...#o#o...o...##...#o#",
".#.....#oo#..o...#.....#oo#..o...#.....#oo#..o.o.#.....#oo#..o...#.....#oo#..o.o.#.....#oo#..o.o.#.....#oo#..o...#.....#oo#..o..",
"#o#o.o.o..o..##.#o#o.o.o..o..##.#o#o.o.o..o..#+<#o#o.o.o..o..##.#o#o.o.o..o..#+<#o#o.o.o..o..#+<#o#o.o.o..o..##.#o#o.o.o..o..##.",
"o.....##....#oo#o.....##....#oo#o.....##....#oo@o.....##....#oo#o.....##....#oo@o.....##....#oo@o.....##....#oo#o.....##....#oo#",
"o.o..#oo#..#ooooo.o..#oo#..#ooo<o.o..#oo#..#ooo<o.o..#oo#..#ooooo.o..#oo#..#ooo<o.o..#oo#..#ooo<o.o..#oo#..#ooooo.o..#oo#..#ooo<",
"##..#oooo#.#o...##..#oooo#.#.o<<##..#oooo#.#.o<<##..#oooo#.#o...<oo<#oooo#<o<o<<##..#oooo#.#.o<<##..#oooo#.#o...<oo<#oooo#<o<o<<",
"oo#..#o..#....##oo#..#o..#...#<<oo#..#o..#...#<<oo#..#o..#....##<<.<<#o..<<<<.<<oo#..#o..#...#<<oo#..#o..#....##<<.<<#o..<<<<.<<",
"<<%&&<@<<&%@<<<<<<@+#oo..#..oooo<<@+#oo..#..oooo..###oo..#..oooo<<@+#oo..#..oooo<<<<<<<<<<<<<<<<<<<<<<<<<<<<<<<<<<<<<<<<<<<<<<<<",
"<@oooOo%@..+@%&<<@ooo#o....####.<@ooo#o....####..#ooo#o....####.<@ooo#o....####.<<<<<<<<<<<<<<<<<<<<<<<<<<<<<<<<<<<<<<<<<<<<<<<<",
"%o..oOo@..+oooo&%o..o#oo..#oooo#%o..o#oo..#oooo#.o..o#oo..#oooo#%o..o#oo..#oooo#<<<<<<<<<<<<<<<<<<<<<<<<<<<<<<<<<<<<<<<<<<<<<<<<",
"@....o...Ooo..oo@....o...#oo..oo@....o...#oo..oo#....o...#oo..oo@....o...#oo..oo<<<<<<<<<<<<<<<<<<<<<<<<<<<<<<<<<<<<<<<<<<<<<<<<",
"<o.##....#o........##....#o.....<o.##....#o........##....#o.....<o.##....#o.....<<<<<<<<<<<<<<<<<<<<<<<<<<<<<<<<<<<<<<<<<<<<<<<<",
"<<+oo#..o#........#oo#..o#......<<+oo#..o#........#oo#..o#......<<+oo#..o#......<<<<<<<<<<<<<<<<<<<<<<<<<<<<<<<<<<<<<<<<<<<<<<<<",
"<@oooo#o......ooo#oooo#o......oo<@oooo#o......ooo#oooo#o......oo<@oooo#o......oo<<<<<<<<<<<<<<<<<<<<<<<<<<<<<<<<<<<<<<<<<<<<<<<<",
"<+o..o#..oo.o...o#o..o#..oo.o...<+o..o#..oo.o...o#o..o#..oo.o...<+o..o#..oo.o...<<<<<<<<<<<<<<<<<<<<<<<<<<<<<<<<<<<<<<<<<<<<<<<<",
"<oo...........#.oo............#.<oo...........#.oo............#.<oo...........#.<<<<<<<<<<<<<<<<<<<<<<<<<<<<<<<<<<<<<<<<<<<<<<<<",
"<<@.o...##...#o#o...o...##...#o#<<@.o...##...#o#o...o...##...#o#<<@.o...##...#o#<<<<<<<<<<<<<<<<<<<<<<<<<<<<<<<<<<<<<<<<<<<<<<<<",
"<@+....#oo#..o...#.....#oo#..o..<@+....#oo#..o...#.....#oo#..o..<@+....#oo#..o..<<<<<<<<<<<<<<<<<<<<<<<<<<<<<<<<<<<<<<<<<<<<<<<<",
"%o#o.o.o..o..##.#o#o.o.o..o..##.%o#o.o.o..o..##.#o#o.o.o..o..##.%o#o.o.o..o..##.<<<<<<<<<<<<<<<<<<<<<<<<<<<<<<<<<<<<<<<<<<<<<<<<",
"+.....##....#oo#o.....##....#oo#+.....##....#oo#o.....##....#oo#+.....##....#oo#<<<<<<<<<<<<<<<<<<<<<<<<<<<<<<<<<<<<<<<<<<<<<<<<",
"o.o..#oo#..#ooooo.o..#oo#..#ooooo.o..#oo#..#ooooo.o..#oo#..#ooooo.o..#oo#..#ooo<<<<<<<<<<<<<<<<<<<<<<<<<<<<<<<<<<<<<<<<<<<<<<<<<",
"<o..#oooo#.#o...##..#oooo#.#o...<o..#oooo#.#o...<o..#oooo#.#o...<oo<#oooo#<o<o<<<<<<<<<<<<<<<<<<<<<<<<<<<<<<<<<<<<<<<<<<<<<<<<<<",
"<<o..#o..#....##oo#..#o..#....##<<o..#o..#....##<<o..#o..#....##<<.<<#o..<<<<.<<<<<<<<<<<<<<<<<<<<<<<<<<<<<<<<<<<<<<<<<<<<<<<<<<"
};
