/* XPM */
static char *room_room4b_tileset_data[] = {
/* columns rows colors chars-per-pixel */
"128 96 15 1 ",
"  c black",
". c #0A090A",
"X c #0F0D0F",
"o c #141314",
"O c #100D2B",
"+ c #261F26",
"@ c #3D333D",
"# c #1A0F45",
"$ c #330670",
"% c #452D75",
"& c #524152",
"* c #8E6ECC",
"= c #B397E9",
"- c #DDCCFF",
"; c None",
/* pixels */
"                                                                                 ++o++oo o++++oo ++o++oo o++++oo ++o++oo o++;;;;",
"                                                                                 +oooo+X.++ooooX +oooo+X.++ooooX +oooo+X.++o;;;;",
"                   -                                                             XXXXXXX.XXXXXXX XXXXXXX.XXXXXXX XXXXXXX.XXX;;;;",
"                                                                                   ..       .. .   ..       .. .   ..      ;;;;;",
"                                                                        % % %   +oo o+o++oo o++++oo o+o++oo o++++oo o+o++oo;;;;;",
"                                                      -                   *     ooX.XoooooX Xo+oooX.XoooooX Xo+oooX.XoooooX;;;;;",
"                             -                                          %*-*%   XXX XXXXXXX XXXXXXX XXXXXXX XXXXXXX XXXXXXX;;;;;",
"                                                                          *         .      .. .     .               .      ;;;;;",
"                                     -                                  % % %   o+++ooo o++o+oo o+++ooo o;;;;;;;o+++ooo o++;;;;;",
"                                                                                XoooooX XoooooX XoooooX Xo;;;;;;XoooooX Xoo;;;;;",
"                                                                                XXXXX+X XXXXXXX XXXXX+X XXX;;;;;XXXXX+X XXX;;;;;",
"                                          -                                      ..  .   .. ..   ..  .   ..;;;;; ..  .   ..;;;;;",
"                       -                                                        ++oo.+o+++oo +++++oo.+o+++oo;;;;++oo.+o+++oo;;;;",
"                                                                                oooX.X+ooooX X+ooooX.X+ooooX;;;;oooX.X+ooooX;;;;",
"                                                                                XXXX XXXXXXX XXXXXXX XXXXXXX;;;;XXXX XXXXXXX;;;;",
"                                                                                ..  .       ... ..  .       ;;;;..  .       ;;;;",
" ++o++oo;;;;;;;; ++o++oo o++++oo;;;;;;;;;;;;;;;; ++o++oo o++++oo;;;;;+oo o++++oo;;;;;;;;;o++++oo;;;;;;;$#;;;;;;;;-;#=$$$$$$=#;-;",
" +oooo+X;;;;;;;; +oooo+X.++ooooX;;;;;;;;;;;;;;;; +oooo+X.++ooooX;;;;;o+X.++ooooX;;;;;;;;;++ooooX;;;;;;#$#O;;;;;;=*%#=$$$$$$=#%*=",
" XXXXXXX;;;;;;;; XXXXXXX.XXXXXXX;;;;;;;;;;;;;;;; XXXXXXX.XXXXXXX;;;;;XXX.XXXXXXX;;;;;;;;;XXXXXXX;;;;;;$##$;;;;;;;%;#=$$$$$$=#;%;",
"   ..   ;;;;;;;;   ..       .. .;;;;;;;;;;;;;;;;   ..       .. .;;;;;       .. .;;;;;;;;;   .. .;;;;;#O OO#;;;;;;;;#=$$$$$$=#;;;",
"+oo o+o++oo o++++oo o+o++oo o++++oo;;;;;;;;;o++++oo o+o++oo o+++;;;;o+o++oo o++++oo o+o++oo o+++;;;;#O O  O#;;;;;;;#=$$$$$$=#;;;",
"ooX.XoooooX Xo+oooX.XoooooX Xo+oooX;;;;;;;;;Xo+oooX.XoooooX Xo+o;;;;XoooooX Xo+oooX.XoooooX Xo+o;;;#O     O #;;;;;;#=$$$$$$=#;;;",
"XXX XXXXXXX XXXXXXX XXXXXXX XXXXXXX;;;;;;;;;XXXXXXX XXXXXXX XXXX;;;;XXXXXXX XXXXXXX XXXXXXX XXXX;#$O    O  OO#O;;;;#=$$$$$$=#;;;",
"    .      .. .                    ;;;;;;;;;. .            .. . ;;;;.      .. .     .      .. . $$# O        #$#;;;#=$$$$$$=#;;;",
"o+++ooo o++o+oo ;;;;;;;;;;;;;;;;o+++ooo o++o+oo ;;;;;;;;o++o+oo ;;;;ooo o++o+oo o+++ooo o++o+oo ###O  O     O$#O;;;#=$$$$$$=#;;;",
"XoooooX XoooooX ;;;;;;;;;;;;;;;;XoooooX XoooooX ;;;;;;; XoooooX ;;;;ooX XoooooX XoooooX XoooooX ;O$O     O O$#O;;;;#=$$$$$$=#;;;",
"XXXXX+X XXXXXXX ;;;;;;;;;;;;;;;;XXXXX+X XXXXXXX ;;;;;;X XXXXXXX ;;;;X+X XXXXXXX XXXXX+X XXXXXXX ;;;#OO     O#;;;;;;#=$$$$$$=#;;;",
" ..  .   .. ..  ;;;;;;;;;;;;;;;; ..  .   .. ..  ;;;;;.   .. ..  ;;;; .   .. ..   ..  .   .. ..  ;;;;# O  OO#;;;;;;;#=$$$$$$=#;;;",
"++oo.+o+++oo +++;;;;;;;;;;;;;;;;++oo.+o+++oo +++;;;;;+o+++oo +++;;;;;+o+++oo +++++oo.+o+++oo +++;;;;;#O O$#;;;;;;;;#=$$$$$$=#;;;",
"oooX.X+ooooX X+o;;;;;;;;;;;;;;;;oooX.X+ooooX X+o;;;;;X+ooooX X+o;;;;;X+ooooX X+ooooX.X+ooooX X+o;;;;;;##$O;;;;;;;;;#=$$$$$$=#;;;",
"XXXX XXXXXXX XXX;;;;;;;;;;;;;;;;XXXX XXXXXXX XXX;;;;;XXXXXXX XXX;;;;;XXXXXXX XXXXXXX XXXXXXX XXX;;;;;;O$#O;;;;;;;;;#=$$$$$$=#;;;",
"..  .       ... ;;;;;;;;;;;;;;;;..  .       ... ;;;;;       ... ;;;;;       ... ..  .       ... ;;;;;;;#O;;;;;;;;;;#=$$$$$$=#;;;",
";;;#=$$$$$$=#;;;;;;#=$$$$$$=#;;;;-;;#=$$$$$$$$$$;;;;;;;;;;;@@@@@oo              $$$$$$$$$$=#;;-;@@@@@;;;;;;;;;;;              oo",
";;;#=$$$$$$=#;;;;;;#=$$$$$$=#;;;=*%%#=$$$$$$$$$$;;;;;;;;;@o++@@@@@              $$$$$$$$$$=#%%*=@@@++o@;;;;;;;;;              @@",
";;;#=$$$$$$=#;;;;;;#=$$$$$$=#;;;;%;;#=$$$$$$$$$$;;;;;;;;+@@o++++@+              $$$$$$$$$$=#;;%;++++o@@+;;;;;;;;              +@",
";;;#=$$$$$$=#;;;;;;#=$$$$$$=#;;;;;;;#=$$$$$$$=$$;;;;;;@o+++   oo++              $$=$$$$$$$=#;;;;oo   +++o@;;;;;;              ++",
";;;#=$$$$$$=#;;;;;;#=$$$$$$=#;;;;;;;#=$$$$$$=$$$;;;;;+@@o       oo              $$$=$$$$$$=#;;;;       o@@+;;;;;              oo",
";;;#=$$$$$$=#;;;;;;#=$$$$$$=#;;;;;;;#=$$$$$=$=$$;;;;o+++        @@              $$=$=$$$$$=#;;;;        +++o;;;;              @@",
";;;#=$$$$$$=#;;;;;;#=$$$$$$=#;;;;;;;#=$$$$$=$=$$;;;@@o          @+              $$=$=$$$$$=#;;;;          o@@;;;              +@",
";;;#=$$$$$$=#;;;;;;#=$$$$$$=#;;;;;;;#=$$$$$=$$==;;;@++          ++              ==$$=$$$$$=#;;;;          ++@;;;              ++",
";;;#=$$$$$$=#;;;;;;#=$$$$$$=#;;;;;;;#=$$$$$=$$$$;;o++           oo              $$$$=$$$$$=#;;;;           ++o;;              oo",
";;;#=$$$$$$=#;;;;;;#=$$$$$$=#;;;;;;;#=$$$$$$=$$$;@@o            @@              $$$=$$$$$$=#;;;;            o@@;              @@",
";;;#=$$$$$$=#;;;;;;#=$$$$$$=#;;;;;;;#=$$$$$$$=$$;@+             @+              $$=$$$$$$$=#;;;;             +@;              +@",
";;;#=$$$$$$=#;;;;;;O*$$$$$$*O;;;;;;;O*$$$$$$$$==;++             ++              ==$$$$$$$$*O;;;;             ++;              ++",
";;;#=$$$$$$=#;;;;;;;%##$$##%;;;;;;;;;%##$$$$$$$$;oo             oo              $$$$$$$$##%;;;;;             oo;              oo",
";;;#=$$$$$$=#;;;;;;;;OO##OO;;;;;;;;;;;OO####$$$$@@              @@              $$$$####OO;;;;;;              @@              @@",
";;;#=$$$$$$=#;;;;;;;;;;OO;;;;;;;;;;;;;;;OOOO####@+              @+              ####OOOO;;;;;;;;              +@              +@",
";;;#=$$$$$$=#;;;;;;;;;;;;;;;;;;;;;;;;;;;;;;;OOOO++              ++o@@o@@@o@@@o@@OOOO;;;;;;;;;;;;              ++@@o@@@o@@@o@@o++",
"..+++oo..+..oooo..+++oo..+..oooo..+++o.oo++o@@@;..+++oo..+..oOO#..+++oo..+..oooo***************;..+++oo.O#*$$$**;@@@o++oo...oooo",
".+ooo+o....++++..+ooo+o....++++..+ooo+oo++++@@@;.+ooo+o....OO#$$.+ooo+o....++++.$$$$$$$$$$$$$$#%.+ooo+o.O#*$$$$$;@@@++++oo.++++.",
".o..o+oo..+oooo+.o..o+oo..+oooo+.o..o+.oo+o+@@@;.o..o+oo.OO#$$$$.o..o+oo..+oooo+$$$$$$$$$$$$##$%.o..o+ooO#*$$$$$;@@@+o+oo.+oooo+",
"+....o...+oo..oo+....o...+oo..oo+....o...ooo;;;;+....o...O#*====+....o...+oo..oo===========#$$$%+....o..O#$=====;;;;ooo..+oo..oo",
"...++....+o.........+....+o.........+++.+@@@@&&&...++....+OO#$$$...++....+o.....$$$$$$$$$$$=$$$%...++...O##$$$$$&&&@@@@+.+++....",
"..+oo+..o+........+.o+..o+........+.o++.@@@+@&&&..+oo+..o+.OO###..+oo+..o+......#########$$*$$$%..+oo+..oO######&&&@+@@@o++o....",
"o+oooo+o......ooo+o.++oo......ooo+o.++oo@+@@@&&&o+oooo+o.....OOOo+oooo+o......ooOOOOOOOO##$*$$O;o+oooo+o..OOOOOO&&&@@@+@.o++..oo",
"o+o..o+..oo.o...o+o..o+..oo.o...o+o..o+..ooo;;;;o+o..o+..oo.o...o+o..o+..oo.o...o+o..o+OO#*$$O;;o+o..o+..oo.o...;;;;ooo..oo.o...",
"oo............+.oo....+++.....+.oo....+++o+@@@;;oo............+.oo............+.oo......O#*##%;;oo............+.;;@@@+o+++....+.",
"o...o...++...+o+o...o.o+++...+o+o...o.o++++@@@;;o...o...++...+o+o...o...++...+o+o...o...O#%$$%;;o...o...++...+o+;;@@@++++o...+o+",
".+.....+oo+..o...+....++o++..o...+....++o+++@@;;.+.....+oo+..o...+.....+oo+..o...+.....+O#*$$%;;.+.....+oo+..o..;;@@+++o+++..o..",
"+o+o.o.o..o..++.+o+o.o.o.ooo.++.+o+o.o.o.ooo;;;;+o+o.o.o..o..++.+o+o.o.o..o..++.+o+o.o.oO#*$$%;;+o+o.o.o..o..++.;;;;oooo..o..++.",
"o.....++....+oo+o...o+++@@@+@oo+o...o+++@@@+@&&&o.....++....+oo+o.....++....+oo+o.....++O#*$$%;;o.....++....+oo+&&&@+@@@.++o.oo+",
"o.o..+oo+..+ooooo.o.+++o@+@@@&ooo.o.+++o@+@@@&&&o.o..+oo+..+ooooo.o..+oo+..+ooooo.o..+ooO#*$$%;;o.o..+oo+..+oooo&&&@@@+@++++.ooo",
"++..+oooo+.+o...++..+o+o.@@@@&&.++..+o+o.@@@@&&&++..+oooo+.+o...+@@+@@@oo@@@@+@.++..+oooO#*$$%;;++..+oooo+.+o...&&&@@@@.o+o+....",
"oo+..+o..+....++oo+..+o..o.o;;;;oo+..+o..o.o;;;;oo+..+o..+....++;+@@@@+;;+@+@@+;oo+..+o.O#*$$%;;oo+..+o..+....++;;;;o.o..+....++",
";@@@o++oo...oooo****************..+++o.oo++o@@@;;*****************$$$*#O.+..oooo@&&&&&&&&&&&&&&@..++++@@&&&&&&&&&&&&&&&&&&&&&&&&",
";@@@++++oo.++++.$$$$$$$$$$$$$$$$.+ooo+oo++++@@@;%#$$$$$$$$$$$$$$$$$$$*#O...++++.&@@&&&&&&&&&&@@&.+oooo++@@&&&&&&&&&&&&&&&&&&&&&&",
";@@@+o+oo.+oooo+$$$$$$$$$$$$$$$$.o..o+.oo+o+@@@;%$##$$$$$$$$$$$$$$$$$*#O..+oooo+&&@@@@@@@@@@@@&&.o..o.+++++@@@@@@@@@@@@@@@@@@@@@",
";;;;ooo..+oo..oo================+....o...ooo;;;;%$$$#================$#O.+oo..oo&&+@@@@@@@@@@+&&+.....+@+@@+@@@@+@@@@+@@@+@@@@@@",
"&&&@@@@+.+++....$$$$$$$$$$$$$$$$....+++.+@@@@&&&%$$$=$$$$$$$$$$$$$$$$##O.+o.....&&+@@+@@@@+@@+&&...++.++@+@@@@+@@@+@@+@@@@@@@@+@",
"&&&@+@@@o++o....################..+.o++.@@@+@&&&%$$$*$$###############O.o+......o&+o@@+@@+@@o+&o..+oooo+@@@+@@@@@@@@@@+@@@@+@@+@",
"&&&@@@+@.o++..ooOOOOOOOOOOOOOOOOo+o.++oo@+@@@&&&;O$$*$##OOOOOOOOOOOOOO+o......oo;oooooooooooooo;o+oooooooooooooooooooooooooooooo",
";;;;ooo..oo.o...o+o..o+..oo.o...o+o..o+..ooo;;;;;;O$$*#OOoo.o...o+o..o+..oo.o...;;;;ooo..ooo;;;;o+o..o...oo.o...o+o..o+..oo.o...",
";;@@@+o+++....+.oo............+.oo....+++o+@@@;;;;%##*#O......+.oo............+.;;@@@+o++o+@@@;;oo............+.oo............+.",
";;@@@++++o...+o+o...o...++...+o+o...o.o++++@@@;;;;%$$%#O++...+o+o...o...++...+o+;;@@@++++++@@@;;o...o...++...+o+o...o...++...+o+",
";;@@+++o+++..o...+.....+oo+..o...+....++o+++@@;;;;%$$*#Ooo+..o...+.....+oo+..o..;;@@+++oo+++@@;;.+.....+oo+..o...+.....+oo+..o..",
";;;;oo.o..o..++.+o+o.o.o..o..++.+o+o.o.o.ooo;;;;;;%$$*#O..o..++.+o+o.o.o..o..++.;;;;oo.o.ooo;;;;+o+o.o.o..o..++.+o+o.o.o..o..++.",
"&&&@@@@+....+oo+o.....++....+oo+o...o+++@@@+@&&&;;%$$*#O....+oo+o.....++....+oo+&&&@@@@+@@@+@&&&o.....++....+oo+o.....++....+oo+",
"&&&@+@@@+..+ooooo.o..+oo+..+ooooo.o.+++o@+@@@&&&;;%$$*#O+..+ooooo.o..+oo+..+oooo&&&@+@@@@+@@@&&&o.o..+oo+..+ooooo.o..+oo+..+oooo",
"&&&@@@+@o@@@@@@.++..+oooo+.+o...+@@+@@@o.@@@@&&&;;%$$*#Oo+.+o...++..+oooo+.+o...&&&@@@+@.@@@@&&&++..+oooo+.+o...++..+oooo+.+o...",
";;;;;+o..+@+@@+;oo+..+o..+....++;+@@@@+..o.;;;;;;;%$$*#O.+....++oo+..+o..+....++;;;;;+o..o.;;;;;oo+..+o..+....++oo+..+o..+....++",
"@&&&&&&&&&&&&&&&&&&&&&&&@@+.oooo&&&&&&&&&&&&&&&@..+++oo..+..oooo;;;;;;;;;;;;;;;;;;;;;;;;;;;;;;;;;;;;;;;;;;;;;;;;;;;;;;;;;;;;;;;;",
"&@@&&&&&&&&&&&&&&&&&&&@@++o++++.&&&&&&&&&&&&&@@&.+ooo+o....++++.;;;;;;;;;;;;;;;;;;;;;;;;;;;;;;;;;;;;;;;;;;;;;;;;;;;;;;;;;;;;;;;;",
"&&@@@@@@+@@@@+@@@@+@@+++++.oooo+@@+@@@@+@@@@@@&&.o..o+oo..+oooo+;;;;;;;;;;;;;;;;;;;;;;;;;;;;;;;;;;;;;;;;;;;;;;;;;;;;;;;;;;;;;;;;",
"&&+@@@@@@@@@@@@@@@@@@@@+@+.o..oo@@@@@@@@@@@@@+&&+....o...+oo..oo;;;;;;;;;;;;;;;;;;;;;;;;;;;;;;;;;;;;;;;;;;;;;;;;;;;;;;;;;;;;;;;;",
"&&+@@+@@@@@+@@@@@@@@@+@@++......@@@@+@@@@@+@@+&&...++....+o.....;;;;;;;;;;;;;;;;;;;;;;;;;;;;;;;;;;;;;;;;;;;;;;;;;;;;;;;;;;;;;;;;",
"o&+o@@+@@@@@@@+@@@@@+@@@+oo.....@+@@@@@@@+@@o+&o..+oo+..o+.o....;;;;;;;;;;;;;;;;;;;;;;;;;;;;;;;;;;;;;;;;;;;;;;;;;;;;;;;;;;;;;;;;",
";ooooooooooooooooooooooooo....ooooooooooooooooo;o+oooo+o..++..oo;;;;;;;;;;;;;;;;;;;;;;;;;;;;;;;;;;;;;;;;;;;;;;;;;;;;;;;;;;;;;;;;",
";;;;ooo..oo.o...o+o..o+...o.o...o+o..o+..ooo;;;;o+o..o+..oo.o...;;;;;;;;;;;;;;;;;;;;;;;;;;;;;;;;;;;;;;;;;;;;;;;;;;;;;;;;;;;;;;;;",
";;@@@+o+++....+.oo............+.oo....+++o+@@@;;oo......++....+.;;;;;;;;;;;;;;;;;;;;;;;;;;;;;;;;;;;;;;;;;;;;;;;;;;;;;;;;;;;;;;;;",
";;@@@++++o...+o+o...o...++...+o+o...o.o++++@@@;;o...o..++o...+o+;;;;;;;;;;;;;;;;;;;;;;;;;;;;;;;;;;;;;;;;;;;;;;;;;;;;;;;;;;;;;;;;",
";;@@+++o+++..o...+.....+oo+..o...+....++o+++@@;;.+....+o+++..o..;;;;;;;;;;;;;;;;;;;;;;;;;;;;;;;;;;;;;;;;;;;;;;;;;;;;;;;;;;;;;;;;",
";;;;oooo..o..++.+o+o.o.o..o..++.+o+o.o.o.ooo;;;;+o+o.ooo..o..++.;;;;;;;;;;;;;;;;;;;;;;;;;;;;;;;;;;;;;;;;;;;;;;;;;;;;;;;;;;;;;;;;",
"&&&@+@@@.++o.oo+o.....++....+oo+o...o+++@@@+@&&&o...+@@@.++o.oo+;;;;;;;;;;;;;;;;;;;;;;;;;;;;;;;;;;;;;;;;;;;;;;;;;;;;;;;;;;;;;;;;",
"&&&@@@+@++++.oooo.o..+oo+..+ooooo.o.+++o@+@@@&&&o.o@@@+@++++.ooo;;;;;;;;;;;;;;;;;;;;;;;;;;;;;;;;;;;;;;;;;;;;;;;;;;;;;;;;;;;;;;;;",
"&&&@@@@.o+o+....++..+oooo+.+o...++..+o+o.@@@@&&&+@&@@@@.o+o+....;;;;;;;;;;;;;;;;;;;;;;;;;;;;;;;;;;;;;;;;;;;;;;;;;;;;;;;;;;;;;;;;",
";;;;o.o..+....++oo+..+o..+....++oo+..+o..o.o;;;;;;;;o.o..+....++;;;;;;;;;;;;;;;;;;;;;;;;;;;;;;;;;;;;;;;;;;;;;;;;;;;;;;;;;;;;;;;;"
};
