/* XPM */
static char *room_room4a_tileset_data[] = {
/* columns rows colors chars-per-pixel */
"128 96 18 1 ",
"  c black",
". c #0A090A",
"X c #0F0D0F",
"o c #141314",
"O c #2B0D0D",
"+ c #261F26",
"@ c #3D333D",
"# c #450F0F",
"$ c #4E1E12",
"% c #700606",
"& c #452D75",
"* c #524152",
"= c #8F4917",
"- c #BE7F14",
"; c #E1C42F",
": c #8E6ECC",
"> c #DDCCFF",
", c None",
/* pixels */
"                                                                                 ++o++oo o++++oo ++o++oo o++++oo ++o++oo o++,,,,",
"                                                                                 +oooo+X.++ooooX +oooo+X.++ooooX +oooo+X.++o,,,,",
"                   >                                                             XXXXXXX.XXXXXXX XXXXXXX.XXXXXXX XXXXXXX.XXX,,,,",
"                                                                                   ..       .. .   ..       .. .   ..      ,,,,,",
"                                                                        & & &   +oo o+o++oo o++++oo o+o++oo o++++oo o+o++oo,,,,,",
"      >                                                                   :     ooX.XoooooX Xo+oooX.XoooooX Xo+oooX.XoooooX,,,,,",
"                             >                                          &:>:&   XXX XXXXXXX XXXXXXX XXXXXXX XXXXXXX XXXXXXX,,,,,",
"                                                                          :         .      .. .     .               .      ,,,,,",
"                                     >                                  & & &   o+++ooo o++o+oo o+++ooo o,,,,,,,o+++ooo o++,,,,,",
"                                                                                XoooooX XoooooX XoooooX Xo,,,,,,XoooooX Xoo,,,,,",
"                                                                                XXXXX+X XXXXXXX XXXXX+X XXX,,,,,XXXXX+X XXX,,,,,",
"                                          >                                      ..  .   .. ..   ..  .   ..,,,,, ..  .   ..,,,,,",
"                       >                                                        ++oo.+o+++oo +++++oo.+o+++oo,,,,++oo.+o+++oo,,,,",
"                                                                                oooX.X+ooooX X+ooooX.X+ooooX,,,,oooX.X+ooooX,,,,",
"                                                                                XXXX XXXXXXX XXXXXXX XXXXXXX,,,,XXXX XXXXXXX,,,,",
"                                                                                ..  .       ... ..  .       ,,,,..  .       ,,,,",
" ++o++oo,,,,,,,, ++o++oo o++++oo,,,,,,,,,,,,,,,, ++o++oo o++++oo,,,,,+oo o++++oo,,,,,,,,,o++++oo,;,#-%%%%%%-#,;,,,,#-%%%%%%-#,,,",
" +oooo+X,,,,,,,, +oooo+X.++ooooX,,,,,,,,,,,,,,,, +oooo+X.++ooooX,,,,,o+X.++ooooX,,,,,,,,,++ooooX-=$#-%%%%%%-#$=-,,,#-%%%%%%-#,,,",
" XXXXXXX,,,,,,,, XXXXXXX.XXXXXXX,,,,,,,,,,,,,,,, XXXXXXX.XXXXXXX,,,,,XXX.XXXXXXX,,,,,,,,,XXXXXXX,$,#-%%%%%%-#,$,,,,#-%%%%%%-#,,,",
"   ..   ,,,,,,,,   ..       .. .,,,,,,,,,,,,,,,,   ..       .. .,,,,,       .. .,,,,,,,,,   .. .,,,#-%%%%%%-#,,,,,,#-%%%%%%-#,,,",
"+oo o+o++oo o++++oo o+o++oo o++++oo,,,,,,,,,o++++oo o+o++oo o+++,,,,o+o++oo o++++oo o+o++oo o+++,,,#-%%%%%%-#,,,,,,#-%%%%%%-#,,,",
"ooX.XoooooX Xo+oooX.XoooooX Xo+oooX,,,,,,,,,Xo+oooX.XoooooX Xo+o,,,,XoooooX Xo+oooX.XoooooX Xo+o,,,#-%%%%%%-#,,,,,,#-%%%%%%-#,,,",
"XXX XXXXXXX XXXXXXX XXXXXXX XXXXXXX,,,,,,,,,XXXXXXX XXXXXXX XXXX,,,,XXXXXXX XXXXXXX XXXXXXX XXXX,,,#-%%%%%%-#,,,,,,#-%%%%%%-#,,,",
"    .      .. .                    ,,,,,,,,,. .            .. . ,,,,.      .. .     .      .. . ,,,#-%%%%%%-#,,,,,,#-%%%%%%-#,,,",
"o+++ooo o++o+oo ,,,,,,,,,,,,,,,,o+++ooo o++o+oo ,,,,,,,,o++o+oo ,,,,ooo o++o+oo o+++ooo o++o+oo ,,,#-%%%%%%-#,,,,,,#-%%%%%%-#,,,",
"XoooooX XoooooX ,,,,,,,,,,,,,,,,XoooooX XoooooX ,,,,,,, XoooooX ,,,,ooX XoooooX XoooooX XoooooX ,,,#-%%%%%%-#,,,,,,#-%%%%%%-#,,,",
"XXXXX+X XXXXXXX ,,,,,,,,,,,,,,,,XXXXX+X XXXXXXX ,,,,,,X XXXXXXX ,,,,X+X XXXXXXX XXXXX+X XXXXXXX ,,,#-%%%%%%-#,,,,,,#-%%%%%%-#,,,",
" ..  .   .. ..  ,,,,,,,,,,,,,,,, ..  .   .. ..  ,,,,,.   .. ..  ,,,, .   .. ..   ..  .   .. ..  ,,,#-%%%%%%-#,,,,,,#-%%%%%%-#,,,",
"++oo.+o+++oo +++,,,,,,,,,,,,,,,,++oo.+o+++oo +++,,,,,+o+++oo +++,,,,,+o+++oo +++++oo.+o+++oo +++,,,#-%%%%%%-#,,,,,,#-%%%%%%-#,,,",
"oooX.X+ooooX X+o,,,,,,,,,,,,,,,,oooX.X+ooooX X+o,,,,,X+ooooX X+o,,,,,X+ooooX X+ooooX.X+ooooX X+o,,,#-%%%%%%-#,,,,,,#-%%%%%%-#,,,",
"XXXX XXXXXXX XXX,,,,,,,,,,,,,,,,XXXX XXXXXXX XXX,,,,,XXXXXXX XXX,,,,,XXXXXXX XXXXXXX XXXXXXX XXX,,,#-%%%%%%-#,,,,,,#-%%%%%%-#,,,",
"..  .       ... ,,,,,,,,,,,,,,,,..  .       ... ,,,,,       ... ,,,,,       ... ..  .       ... ,,,#-%%%%%%-#,,,,,,#-%%%%%%-#,,,",
",,,#-%%%%%%-#,,,,;,,#-%%%%%%%%%%,,,,,,,,,,,@@@@@oo              %%%%%%%%%%-#,,;,@@@@@,,,,,,,,,,,              oo,,,,,,,%#,,,,,,,",
",,,#-%%%%%%-#,,,-=$$#-%%%%%%%%%%,,,,,,,,,@o++@@@@@              %%%%%%%%%%-#$$=-@@@++o@,,,,,,,,,              @@,,,,,,#%#O,,,,,,",
",,,#-%%%%%%-#,,,,$,,#-%%%%%%%%--,,,,,,,,+@@o++++@+              --%%%%%%%%-#,,$,++++o@@+,,,,,,,,              +@,,,,,,%##%,,,,,,",
",,,#-%%%%%%-#,,,,,,,#-%%%%%%%-%%,,,,,,@o+++   oo++              %%-%%%%%%%-#,,,,oo   +++o@,,,,,,              ++,,,,,#O OO#,,,,,",
",,,#-%%%%%%-#,,,,,,,#-%%%%%%-%%%,,,,,+@@o       oo              %%%-%%%%%%-#,,,,       o@@+,,,,,              oo,,,,#O O  O#,,,,",
",,,#-%%%%%%-#,,,,,,,#-%%%%%-%%%%,,,,o+++        @@              %%%%-%%%%%-#,,,,        +++o,,,,              @@,,,#O     O #,,,",
",,,#-%%%%%%-#,,,,,,,#-%%%%%-%%%;,,,@@o          @+              -%%%-%%%%%-#,,,,          o@@,,,              +@,#%O    O  OO#O,",
",,,#-%%%%%%-#,,,,,,,#-%%%%%-%%%-,,,@++          ++              -%%%-%%%%%-#,,,,          ++@,,,              ++%%# O        #%#",
",,,#-%%%%%%-#,,,,,,,#-%%%%%-%%%%,,o++           oo              %%%%-%%%%%-#,,,,           ++o,,              oo###O  O     O%#O",
",,,#-%%%%%%-#,,,,,,,#-%%%%%%-%%%,@@o            @@              %%%-%%%%%%-#,,,,            o@@,              @@,O%O     O O%#O,",
",,,#-%%%%%%-#,,,,,,,#-%%%%%%%-%%,@+             @+              %%-%%%%%%%-#,,,,             +@,              +@,,,#OO     O#,,,",
",,,O=%%%%%%=O,,,,,,,O=%%%%%%%%--,++             ++              --%%%%%%%%=O,,,,             ++,              ++,,,,# O  OO#,,,,",
",,,,$##%%##$,,,,,,,,,$##%%%%%%%%,oo             oo              %%%%%%%%##$,,,,,             oo,              oo,,,,,#O O%#,,,,,",
",,,,,OO##OO,,,,,,,,,,,OO####%%%%@@              @@              %%%%####OO,,,,,,              @@              @@,,,,,,##%O,,,,,,",
",,,,,,,OO,,,,,,,,,,,,,,,OOOO####@+              @+              ####OOOO,,,,,,,,              +@              +@,,,,,,O%#O,,,,,,",
",,,,,,,,,,,,,,,,,,,,,,,,,,,,OOOO++              ++o@@o@@@o@@@o@@OOOO,,,,,,,,,,,,              ++@@o@@@o@@@o@@o++,,,,,,,#O,,,,,,,",
"..+++oo..+..oooo..+++oo..+..oooo..+++o.oo++o@@@,..++++@@********..+++oo..+..oooo****************..+++o.oo++o@@@,***************@",
".+ooo+o....++++..+ooo+o....++++..+ooo+oo++++@@@,.+oooo++@@******.+ooo+o....++++.****************.+ooo+oo++++@@@,*************@@*",
".o..o+oo..+oooo+.o..o+oo..+oooo+.o..o+.oo+o+@@@,.o..o.+++++@@@@@.o..o+oo..+oooo+@@@@@@@@@@@@@@@@.o..o+.oo+o+@@@,@@+@@@@+@@@@@@**",
"+....o...+oo..oo+....o...+oo..oo+....o...ooo,,,,+.....+@+@@+@@@@+....o...+oo..oo+@@@@+@@@+@@@@@@+....o...ooo,,,,@@@@@@@@@@@@@+**",
"...++....+o.........+....+o.........+++.+@@@@***...++.++@+@@@@+@...++....+o.....@@+@@+@@@@@@@@+@....+++.+@@@@***@@@@+@@@@@+@@+**",
"..+oo+..o+........+.o+..o+........+.o++.@@@+@***..+oooo+@@@+@@@@..+oo+..o+......@@@@@@+@@@@+@@+@..+.o++.@@@+@***@+@@@@@@@+@@o+*o",
"o+oooo+o......ooo+o.++oo......ooo+o.++oo@+@@@***o+ooooooooooooooo+oooo+o......ooooooooooooooooooo+o.++oo@+@@@***ooooooooooooooo,",
"o+o..o+..oo.o...o+o..o+..oo.o...o+o..o+..ooo,,,,o+o..o...oo.o...o+o..o+..oo.o...o+o..o+..oo.o...o+o..o+..ooo,,,,o+o..o+..ooo,,,,",
"oo............+.oo....+++.....+.oo....+++o+@@@,,oo............+.oo............+.oo............+.oo....+++o+@@@,,oo....+++o+@@@,,",
"o...o...++...+o+o...o.o+++...+o+o...o.o++++@@@,,o...o...++...+o+o...o...++...+o+o...o...++...+o+o...o.o++++@@@,,o...o.o++++@@@,,",
".+.....+oo+..o...+....++o++..o...+....++o+++@@,,.+.....+oo+..o...+.....+oo+..o...+.....+oo+..o...+....++o+++@@,,.+....++o+++@@,,",
"+o+o.o.o..o..++.+o+o.o.o.ooo.++.+o+o.o.o.ooo,,,,+o+o.o.o..o..++.+o+o.o.o..o..++.+o+o.o.o..o..++.+o+o.o.o.ooo,,,,+o+o.o.o.ooo,,,,",
"o.....++....+oo+o...o+++@@@+@oo+o...o+++@@@+@***o.....++....+oo+o.....++....+oo+o.....++....+oo+o...o+++@@@+@***o...o+++@@@+@***",
"o.o..+oo+..+ooooo.o.+++o@+@@@*ooo.o.+++o@+@@@***o.o..+oo+..+ooooo.o..+oo+..+ooooo.o..+oo+..+ooooo.o.+++o@+@@@***o.o.+++o@+@@@***",
"++..+oooo+.+o...++..+o+o.@@@@**.++..+o+o.@@@@***++..+oooo+.+o...+@@+@@@oo@@@@+@.++..+oooo+.+o...+@@+@@@o.@@@@***++..+o+o.@@@@***",
"oo+..+o..+....++oo+..+o..o.o,,,,oo+..+o..o.o,,,,oo+..+o..+....++,+@@@@+,,+@+@@+,oo+..+o..+....++,+@@@@+..o.,,,,,oo+..+o..o.o,,,,",
"@***************,@@@o++oo...oooo..+++oo..+..oooo********@@+.oooo,@@@o++oo...oooo@**************@,=================%%%=#O.+..oooo",
"*@@*************,@@@++++oo.++++..+ooo+o....++++.******@@++o++++.,@@@++++oo.++++.*@@**********@@*$#%%%%%%%%%%%%%%%%%%%=#O...++++.",
"**@@@@@@+@@@@+@@,@@@+o+oo.+oooo+.o..o+oo..+oooo+@@+@@+++++.oooo+,@@@+o+oo.+oooo+**@@@@@@@@@@@@**$%##%%%%%%%%%%%%%%%%%=#O..+oooo+",
"**+@@@@@@@@@@@@@,,,,ooo..+oo..oo+....o...+oo..oo@@@@@@@+@+.o..oo,,,,ooo..+oo..oo**+@@@@@@@@@@+**$%%%#----------------%#O.+oo..oo",
"**+@@+@@@@@+@@@@***@@@@+.+++.......++....+o.....@@@@@+@@++......***@@@@+.+++....**+@@+@@@@+@@+**$%%%-%%%%%%%%%%%%%%%%##O.+o.....",
"o*+o@@+@@@@@@@+@***@+@@@o++o......+oo+..o+.o....@@@@+@@@+oo.....***@+@@@o++o....o*+o@@+@@+@@o+*o$%%%=%%###############O.o+......",
",ooooooooooooooo***@@@+@.o++..ooo+oooo+o..++..oooooooooooo....oo***@@@+@.o++..oo,oooooooooooooo,,O%%=%##OOOOOOOOOOOOOO+o......oo",
",,,,ooo..oo.o...,,,,ooo..oo.o...o+o..o+..oo.o...o+o..o+...o.o...,,,,ooo..oo.o...,,,,ooo..ooo,,,,,,O%%=#OOoo.o...o+o..o+..oo.o...",
",,@@@+o+++....+.,,@@@+o+++....+.oo......++....+.oo............+.,,@@@+o+++....+.,,@@@+o++o+@@@,,,,$##=#O......+.oo............+.",
",,@@@++++o...+o+,,@@@++++o...+o+o...o..++o...+o+o...o...++...+o+,,@@@++++o...+o+,,@@@++++++@@@,,,,$%%$#O++...+o+o...o...++...+o+",
",,@@+++o+++..o..,,@@+++o+++..o...+....+o+++..o...+.....+oo+..o..,,@@+++o+++..o..,,@@+++oo+++@@,,,,$%%=#Ooo+..o...+.....+oo+..o..",
",,,,oooo..o..++.,,,,oo.o..o..++.+o+o.ooo..o..++.+o+o.o.o..o..++.,,,,oooo..o..++.,,,,oo.o.ooo,,,,,,$%%=#O..o..++.+o+o.o.o..o..++.",
"***@+@@@.++o.oo+***@@@@+....+oo+o...+@@@.++o.oo+o.....++....+oo+***@+@@@.++o.oo+***@@@@+@@@+@***,,$%%=#O....+oo+o.....++....+oo+",
"***@@@+@++++.ooo***@+@@@+..+ooooo.o@@@+@++++.oooo.o..+oo+..+oooo***@@@+@++++.ooo***@+@@@@+@@@***,,$%%=#O+..+ooooo.o..+oo+..+oooo",
"***@@@@.o+o+....***@@@+@o@@@@@@.+@*@@@@.o+o+....++..+oooo+.+o...***@@@@.o+o+....***@@@+@.@@@@***,,$%%=#Oo+.+o...++..+oooo+.+o...",
",,,,o.o..+....++,,,,,+o..+@+@@+,,,,,o.o..+....++oo+..+o..+....++,,,,o.o..+....++,,,,,+o..o.,,,,,,,$%%=#O.+....++oo+..+o..+....++",
"==%%%=#O.+..oooo===============,..+++oo.O#=%%%==================,===============#OO++oo..+..oooo,,,,,,,,,,,,,,,,,,,,,,,,,,,,,,,,",
"%%%%%=#O...++++.%%%%%%%%%%%%%%#$.+ooo+o.O#=%%%%%%%%%%%%%%%%%%%%%$#%%%%%%%%%%%%%%%%#OO+o....++++.,,,,,,,,,,,,,,,,,,,,,,,,,,,,,,,,",
"%%%%%=#O..+oooo+%%%%%%%%%%%%##%$.o..o+ooO#=%%%%%%%%%%%%%%%%%%%%%$%##%%%%%%%%%%%%%%%%#OOo..+oooo+,,,,,,,,,,,,,,,,,,,,,,,,,,,,,,,,",
"-----%#O.+oo..oo-----------#%%%$+....o..O#%---------------------$%%%#---------------=#O..+oo..oo,,,,,,,,,,,,,,,,,,,,,,,,,,,,,,,,",
"%%%%%##O.+o.....%%%%%%%%%%%-%%%$...++...O##%%%%%%%%%%%%%%%%%%%%%$%%%-%%%%%%%%%%%%%%#OO...+o.....,,,,,,,,,,,,,,,,,,,,,,,,,,,,,,,,",
"######O.o+......#########%%=%%%$..+oo+..oO######################$%%%=%%############OO+..o+......,,,,,,,,,,,,,,,,,,,,,,,,,,,,,,,,",
"OOOOOO+o......ooOOOOOOOO##%=%%O,o+oooo+o..OOOOOOOOOOOOOOOOOOOOOO,O%%=%##OOOOOOOOOOOooo+o......oo,,,,,,,,,,,,,,,,,,,,,,,,,,,,,,,,",
"o+o..o+..oo.o...o+o..o+OO#=%%O,,o+o..o+..oo.o...o+o..o+..oo.o...,,O%%=#OOoo.o...o+o..o+..oo.o...,,,,,,,,,,,,,,,,,,,,,,,,,,,,,,,,",
"oo............+.oo......O#=##$,,oo............+.oo............+.,,$##=#O......+.oo............+.,,,,,,,,,,,,,,,,,,,,,,,,,,,,,,,,",
"o...o...++...+o+o...o...O#$%%$,,o...o...++...+o+o...o...++...+o+,,$%%$#O++...+o+o...o...++...+o+,,,,,,,,,,,,,,,,,,,,,,,,,,,,,,,,",
".+.....+oo+..o...+.....+O#=%%$,,.+.....+oo+..o...+.....+oo+..o..,,$%%=#Ooo+..o...+.....+oo+..o..,,,,,,,,,,,,,,,,,,,,,,,,,,,,,,,,",
"+o+o.o.o..o..++.+o+o.o.oO#=%%$,,+o+o.o.o..o..++.+o+o.o.o..o..++.,,$%%=#O..o..++.+o+o.o.o..o..++.,,,,,,,,,,,,,,,,,,,,,,,,,,,,,,,,",
"o.....++....+oo+o.....++O#=%%$,,o.....++....+oo+o.....++....+oo+,,$%%=#O....+oo+o.....++....+oo+,,,,,,,,,,,,,,,,,,,,,,,,,,,,,,,,",
"o.o..+oo+..+ooooo.o..+ooO#=%%$,,o.o..+oo+..+ooooo.o..+oo+..+oooo,,$%%=#O+..+ooooo.o..+oo+..+oooo,,,,,,,,,,,,,,,,,,,,,,,,,,,,,,,,",
"++..+oooo+.+o...++..+oooO#=%%$,,++..+oooo+.+o...++..+oooo+.+o...,,$%%=#Oo+.+o...++..+oooo+.+o...,,,,,,,,,,,,,,,,,,,,,,,,,,,,,,,,",
"oo+..+o..+....++oo+..+o.O#=%%$,,oo+..+o..+....++oo+..+o..+....++,,$%%=#O.+....++oo+..+o..+....++,,,,,,,,,,,,,,,,,,,,,,,,,,,,,,,,"
};
