/* XPM */
static char *room_room1_tileset_data[] = {
/* columns rows colors chars-per-pixel */
"128 96 19 1 ",
"  c black",
". c #0A090A",
"X c #0F0D0F",
"o c #141314",
"O c #151F19",
"+ c #15241B",
"@ c #23381B",
"# c #261F26",
"$ c #334D28",
"% c #436336",
"& c #2C1954",
"* c #2D1A56",
"= c #452D75",
"- c #9D236B",
"; c #CE4094",
": c #8E6ECC",
"> c #FD70C4",
", c #DDCCFF",
"< c None",
/* pixels */
"                                                                                 X            .. X     X<<<<<<<< X     X<<<<<<<<",
"                                                                                 .     X   X  .  .     .<<<<<<<< .     .<<<<<<<<",
"                                                   ,                               XX  .  X.X      XX   X<<<<<<<   XX   X<<<<<<<",
"                                                                                  X..      ....   X..   .<<<<<<<  X..   .<<<<<<<",
"                        = = =                                                     .   X    ..     .   X  <<<<<<<  .   X  <<<<<<<",
"      ,                   :                                                      X.   .  X..     X.   . X<<<<<<< X.   . X<<<<<<<",
"                        =:,:=                                ,                   .       ..  XX  .      .<<<<<<< .      .<<<<XX<",
"                          :                                                          X  ..  X..X     X .<<<<<<<<     X .<.<<X..X",
"                        = = =        ,                                          .   X.X  .  X. ..   X.X<<<<<<<<<.   X.X< .  X. .",
"                                                                                .   . .     ..  .   . .<<<<<<<<<.   . .     ..  ",
"                                                                                 .        X   X  .     .<<<<<<<< .        X   X ",
"                                          ,                                       XX      .. X.   XX    <<<<<<<<  XX      .. X. ",
"                                                       ,                          ..X   X  ...    ..X   X<<<<<<<  ..X   X  ...  ",
"                                                                                    ...X.X          ...X.X<<<<<<    ...X.X      ",
"                                                                                 X    .. .  XX   X    .. .<<<<<< X    .. .  XX  ",
"                                                                                ..  .       ......  .    <<<<<<<..  .       ....",
"<<<<<<<<<<<<<<<<<<<<<<<<<<<<<<<<<<<<<<<<<     ..<<<<<<<<      ..<<<<<<<<<<<<<<<<<<<<>-;;>>:==&&=<<<<<<<<<<<<<<<<<<<<<<<::<<<<<<<",
"<<<<<<<<<<<<<<<<<<<<<<<<<<<<<<<<<<<<<<<<<< X  . <<<<<<<<<. X. . <<<<<<<<<<<<<<<<<<<<>;-;;;:===&&<<<<<<<<<<<<<<<<<<<<<<<::<<<<<<<",
"<<<<<<<<<<<<<<<<<<<<<<<<<<<<<<<<<<<<<<<<<<X.X   <<<<<<<<<<X<<   <<<<<<<<<<<<<<<<<<<<<>;---;:==&&<<<<<<<<<<<<<<<%<<<<<<::::<<<<<<",
"<<<<<<<<<<<<<<<<<<<<<<<<<<<<<<<<<<<<<<<<<<<.... <<<<<<<<<<<<<.  <<<<<<<<<<<<<<><:::::::::--:==&&<<<<<<<<<<<<<<%%<<<<<::==::<<<<<",
"<<<<<<<<<<<<<<<<<<<<<<<<<<<<<<<<<<<<<<<<<< ..   <<<<<<<<<<<<<<. <<<<<<<<<<<<<<>><::======::::==&<<<<<<<$<<<<<<%@<<<<<:====:<<<<<",
"<<<<<<<<<<<<<<<<<<<<<<<<<<<<<<<<<<<<<<<<<X..    <<<<<<<<<<<<<<<.<<<<<<<<<<<<<<>><<::=========:::<<<<<$$$$<<<<%%@<<<<:======:<<<<",
"<<<<<<<<<<<<<<<<<<<<<<<<<<<<<XX<<<<<<<<<<..  XX <<<<<<<<<<<<<<<.<<<<<<<<<<<<<>;;<<<:==&&&=======<<<<$%%%$$<<<%@<><<<:==&&==:<<<>",
"<<<<<<<<<<<<<<<<<<<<<<<<<<<<X..X<<<<<<<<..  X..X<<<<<<<<<<<<<<<<<<<<<<<<:<<<<>;;<<<<:==&&&&&&===<<<@$$$$$$%%%%%<><<:===**===:<<>",
"X<<<<<<<<<<<<<<<<<<<<<<<<<<<X. .<<<<<<<<<.  X. .<<<<<<<<<<<<<<<<<<<<<<<<::<<<>;;<<<<<::=&&&&&&&&<<<<@$$$$@<<<%%<;><:==&&&&==:<>;",
".<<<<<<<<<<<<<<<<<<<<<<<<<<<..  <<<<<<<<<   ..  <<<<<<<<<<<<<<<<<<<<<<<<:::<>;;-<<<<<<<:::&&&&&&<<<<<@@$@<<<<@%%;><:==&&&&==:<>;",
".X<<<<<<<<<<<<<<<<<<<<<<<<X<  X <<<<<<<<< X   X <<<<<<<<<<<<<<<<<<<<<<<<::=:>;--<<<<<<<<<<::::&&<<<<<<<@<<<<<<@%;;:===&&&&===:;;",
" .XX<<<<<<<<<<<<<<<<<<<<<... X. <<<<<<<<< .. X. <<<<<<<<<<<<<<<<<<<<<<<<<:==:;--<<<<<<<<<<<<<<::<<<<<<<<<<<<<<<@-;:==&&&&&&==:;-",
"  ..X<<<X<<<<<<<<<<<<<<<X. ...  <<<<<<<<X  ...  <<<<<<<<<<<<<<<<<<<><<<<<:===::-<<<<<<<<<<<<<<<<<<<<<<<<<<<<<<<<--:==&&&&&&==:--",
"    ...X.X<<<<<<<<<<<<<X.X      <<<<<<<X.X      <<<<<<<<<<<<<<<<<<<>><<<<:=====:<<<<<<<<<<<<<<<<<<<<<<<<<<<<<<<<:-:==&&&&&&==:-:",
" X    .. .<<<<<<<<<<<<<. .  XX  <<<<<<<. .  XX  <<<<<<<<<<<<<<<<<<<>;><<<:======<<<<<<<<<<<<<<<<<<<<<<<<<<<<<<<<=::==&&&&&&==::=",
"..  .    <<<<<<<<<<<<<<<    ....<<<<<<<<    ....<<<<<<<<<<<<<<<<<<<>;;>><<:==&==<<<<<<<<<<<<<<<<<<<<<<<<<<<<<<<<==:==&&&&&&==:==",
"==:===&&&&===:==<%%@<<<<<<<<<<<<<<<<<<<<%<<<<<<@<<<<<<<<<<<<<<<<=&&==:>>;;-><<<<<<<<<<<<<<<<<<<<@%%<<<<<<<<<<<<<..###oo..#..oooo",
"===:==&&&&==:===%%@<<<<<<<<<<<<<<<<<<<<<%<<<<<<<<<<<<<<<<<<<<<<<&&===:;;;-;><<<<<<<<<<<<<<<<<<<<<@%<<<<<<<<<<<<<.#ooo#o....####.",
"&==:==&&&&==:==&%@<<<<<<<<<<<<<<<<<<<<<$$$<<<<<<<<<<<<<<<<<<<<<<&&==:;---;><<<<<<<<<<<<<<<<<<<<<<@%%<<<<<<<<<<<<.o..o#oo..#oooo#",
"&&=:===&&===:=&&@<<<<<<<<<<<<<<<<<<<<<$$%$@<<<<<<><<<<<<<<<<<<<<&&==:--:::::::::<<<<<<<<<<<<<<<<<<@%<<<<<<<<<<<<#....o...#oo..oo",
"&&==:==&&==:==&&<<<<<<<$$$<<<<<<<<<<<$$%$$$@<<<<>><<<<<<<<<<<<<<&==::::======::<<<<<<<<<<<<<<<<<<<@%<<<<<<<<<<<<...##....#o.....",
"&&&=:======:=&&&<<<<<$$%$$<<<<<<<<<<<<@%$$@<<<<<>><<<<<<<<<<<<<<:::=========::<<<<<<<<<<<<<<<<<<<%%@<<<<<<<<<<<<..#oo#..o#......",
"::&==:====:==&::<<<<$$%$$@<<<<<<<<<<<<@$$$@<<<<<;;><<<<<<<<<<<<<=======&&&==:<<<<<<<<<<<<<<<<<<<%%@<<<<<<<<<<<<<o#oooo#o......oo",
"==:==:====:==:==<<<<$$$$@<<<<<<<<<<<<<<@$@<<<<<%;;><<<<:<<<<<<<<===&&&&&&==:<<<<<<<<<<<<<<<<<<<<%@<%<<<<<<<<<<<<o#o..o#..oo.o...",
"===:==:==:==:===<<<<<$$$@<<<<<<<<<<<<<<<@<<<<<%%;;><<<::<<<<<<<<&&&&&&&&=::<<<<<<<<<<<<<<<<<<<<<@<<<%<$$<<<<<<<<oo............#.",
"&&==:==::==:==&&<<<<%<@@<<<<<<<<<<<<<<<<<<<<<%%@-;;><:::<<<<<<<<&&&&&&:::<<<<<<<<<<<<<<$$$<<<<<<<<<<<$%$$<<<<<<<o...o...##...#o#",
"&&&==:=::=:==&&&%<<%<<<<<<<<<<<<<<<<<<<<<<<<%%@<--;>:=::<<<<<<<<&&::::<<<<<<<<<<<<<<<$$%$$<<<<<<<<<<$$$%$<<<<<<<.#.....#oo#..o..",
":::::::$$:::::::%%%<<<<<<<<<<<<<<<<<<<<<<<<%%@<<--;:==:<<<<<<<<<::<<<<<<<<<<<<<<<<<<$$%$$@<<<<<<<<<<@$$$$$<<<<<<#o#o.o.o..o..##.",
"<<<<<$%%%%%<<<<<@@%%%<<<<<<<<<<<<<<<<<<<<<%%@<<<-::===:<<<<<><<<<<<<<<<<<<<<<<<<<<<<$$$$@<<<<<<<<<<<<@@$$$<<<<<<o.....##....#oo#",
"<<<<<@$%%$@<<<<<<<@@@%%%%%%%%<<<<<<<<<<<%%%@<<<<:=====:<<<<>><<<<<<<<<<<<<<<<<<<<<<<<$$$@<<<<<<<<<<<<<<@@@<<<<<<o.o..#oo#..#oooo",
"<<<<<<@$$@<<<<<<<<<<<@@@%@@@@%%<<<<<<<<%%@<<<<<<======:<<<>;><<<<<<<<<<<<<<<<<<<<<<<%<@@<<<<<<<<<<<<<<<<<<<<<<<<##..#oooo#.#o...",
"<<<<<<<@@<<<<<<<<<<<<<<<%<<<<@@%<<<<<<%%@<<<<<<<==&==:<<>>;;><<<<<<<<<<<<<<<<<<<%<<%<<<<<<<<<<<<<<<<<<<<<<<<<<<<oo#..#o..#....##",
"..###oo..#..oooo..###oo..#..+@<<..###oo..#..+@<<..###oo..#..+@<<<<$%%<@<<%$@<<<<..###oo..#..oooo<<$%%<@<<%$@<<<<<<$%%<@<<%$@<<<<",
".#ooo#o....####..#ooo#o....#@$%<.#ooo#o....#@$%<.#ooo#o....#@$%<<@oooOo$@..+@$%<.#ooo#o....####.<@oooOo$@..+@$%<<@oooOo$@..+@$%<",
".o..o#oo..#oooo#.o..o#oo..#oooo%.o..o#oo..#oooo%.o..o#oo..#oooo%$o..oOo@..+oooo%.o..o#oo..#oooo#$o..oOo@..+oooo%$o..oOo@..+oooo%",
"#....o...#oo..oo#....o...#oo..o$#....o...#oo..oo#....o...#oo..o$@....o...Ooo..oo#....o...#oo..oo@....o...Ooo..o$@....o...Ooo..o$",
"...##....#o........##....#o...o<...##....#o........##....#o...o<...##....#o........##....#o........##....#o...o<...##....#o...o<",
"..#oo#..o#........#oo#..o#....#<..#oo#..o#........#oo#..o#....#<..#oo#..o#........#oo#..o#........#oo#..o#....#<..#oo#..o#....#<",
"o#oooo#o......ooo#oooo#o.....@<<o#oooo#o......ooo#oooo#o.....@<<o#oooo#o......ooo#oooo#o......ooo#oooo#o.....@<<o#oooo#o.....@<<",
"o#o..o#..oo.o...o#o..o#..oo.@<<<o#o..o#..oo.o...o#o..o#..oo.@<<<o#o..o#..oo.o...o#o..o#..oo.o...o#o..o#..oo.@<<<o#o..o#..oo.@<<<",
"oo............#.oo..........+$%<oo............#.oo..........+$%<oo............#.oo............#.oo..........+$%<oo..........+$%<",
"o...o...##...#o#o...o...##...+o$o...o...##...#o#o...o...##...+o$o...o...##...#o#o...o...##...#o#o...o...##...+o$o...o...##...+o$",
".#.....#oo#..o...#.....#oo#..o.o.#.....#oo#..o...#.....#oo#..o.o.#.....#oo#..o...#.....#oo#..o...#.....#oo#..o.o.#.....#oo#..o.o",
"#o#o.o.o..o..##.#o#o.o.o..o..#+<#o#o.o.o..o..##.#o#o.o.o..o..#+<#o#o.o.o..o..##.#o#o.o.o..o..##.#o#o.o.o..o..#+<#o#o.o.o..o..#+<",
"o.....##....#oo#o.....##....#oo@o.....##....#oo#o.....##....#oo@o.....##....#oo#o.....##....#oo#o.....##....#oo@o.....##....#oo@",
"o.o..#oo#..#ooo<o.o..#oo#..#ooo<o.o..#oo#..#ooooo.o..#oo#..#ooo<o.o..#oo#..#ooo<o.o..#oo#..#ooo<o.o..#oo#..#ooo<o.o..#oo#..#ooo<",
"##..#oooo#.#.o<<##..#oooo#.#.o<<##..#oooo#.#o...<oo<#oooo#<o<o<<##..#oooo#.#.o<<<oo<#oooo#<o<o<<<oo<#oooo#<o<o<<##..#oooo#.#.o<<",
"oo#..#o..#...#<<oo#..#o..#...#<<oo#..#o..#....##<<.<<#o..<<<<.<<oo#..#o..#...#<<<<.<<#o..<<<<.<<<<.<<#o..<<<<.<<oo#..#o..#...#<<",
"<<$%%<@<<%$@<<<<<<$%%<@<<%$@<<<<<<$%%<@<<%$@<<<<<<$%%<@<<%$@<<<<<<@+#oo..#..+@<<<<@+#oo..#..+@<<<<@+#oo..#..+@<<<<$%%<@<<%$@<<<<",
"<@oooOo$@..+@$%<<@oooOo$@..+@$%<<@oooOo$@..+@$%<<@oooOo$@..+@$%<<@ooo#o....#@$%<<@ooo#o....#@$%<<@ooo#o....#@$%<<@oooOo$@..+@$%<",
"$o..oOo@..+oooo%$o..oOo@..+oooo%$o..oOo@..+oooo%$o..oOo@..+oooo%$o..o#oo..#oooo%$o..o#oo..#oooo%$o..o#oo..#oooo%$o..oOo@..+oooo%",
"@....o...Ooo..oo@....o...Ooo..oo@....o...Ooo..oo@....o...Ooo..o$@....o...#oo..oo@....o...#oo..oo@....o...#oo..o$@....o...Ooo..oo",
"...##....#o.....<o.##....#o........##....#o........##....#o...o<<o.##....#o.....<o.##....#o.....<o.##....#o...o<<o.##....#o.....",
"..#oo#..o#......<<+oo#..o#........#oo#..o#........#oo#..o#....#<<<+oo#..o#......<<+oo#..o#......<<+oo#..o#....#<<<+oo#..o#......",
"o#oooo#o......oo<@oooo#o......ooo#oooo#o......ooo#oooo#o.....@<<<@oooo#o......oo<@oooo#o......oo<@oooo#o.....@<<<@oooo#o......oo",
"o#o..o#..oo.o...<+o..o#..oo.o...o#o..o#..oo.o...o#o..o#..oo.@<<<<+o..o#..oo.o...<+o..o#..oo.o...<+o..o#..oo.@<<<<+o..o#..oo.o...",
"oo............#.<oo...........#.oo............#.oo..........+$%<<oo...........#.<oo...........#.<oo.........+$%<<oo...........#.",
"o...o...##...#o#<<@.o...##...#o#o...o...##...#o#o...o...##...+o$<<@.o...##...#o#<<@.o...##...#o#<<@.o...##...+o$<<@.o...##...#o#",
".#.....#oo#..o..<@+....#oo#..o...#.....#oo#..o...#.....#oo#..o.o<@+....#oo#..o..<@+....#oo#..o..<@+....#oo#..o.o<@+....#oo#..o..",
"#o#o.o.o..o..##.$o#o.o.o..o..##.#o#o.o.o..o..##.#o#o.o.o..o..#+<$o#o.o.o..o..##.$o#o.o.o..o..##.$o#o.o.o..o..#+<$o#o.o.o..o..##.",
"o.....##....#oo#+.....##....#oo#o.....##....#oo#o.....##....#oo@+.....##....#oo#+.....##....#oo#+.....##....#oo@+.....##....#oo#",
"o.o..#oo#..#ooooo.o..#oo#..#ooo<o.o..#oo#..#ooo<o.o..#oo#..#ooo<o.o..#oo#..#ooo<o.o..#oo#..#ooo<o.o..#oo#..#ooo<o.o..#oo#..#oooo",
"##..#oooo#.#o...<oo<#oooo#<o<o<<<oo<#oooo#<o<o<<<o..#oooo#.#.o<<<oo<#oooo#<o<o<<<o..#oooo#.#.o<<<oo<#oooo#<o<o<<<o..#oooo#.#o...",
"oo#..#o..#....##<<.<<#o..<<<<.<<<<.<<#o..<<<<.<<<<o..#o..#...#<<<<.<<#o..<<<<.<<<<o..#o..#...#<<<<.<<#o..<<<<.<<<<o..#o..#....##",
"<<@+#oo..#..oooo<<$%%<@<<%$@<<<<<<@+#oo..#..oooo<<@+#oo..#..oooo<<$%%<@<<%$@<<<<<<@+#oo..#..+@<<..###oo..#..+@<<<<@+#oo..#..oooo",
"<@ooo#o....####.<@oooOo$@..+@$%<<@ooo#o....####.<@ooo#o....####.<@oooOo$@..+@$%<<@ooo#o....#@$%<.#ooo#o....#@$%<<@ooo#o....####.",
"$o..o#oo..#oooo#$o..oOo@..+oooo%$o..o#oo..#oooo#$o..o#oo..#oooo#$o..oOo@..+oooo%$o..o#oo..#oooo%.o..o#oo..#oooo%$o..o#oo..#oooo#",
"@....o...#oo..oo@....o...Ooo..oo@....o...#oo..oo@....o...#oo..oo@....o...Ooo..oo@....o...#oo..o$#....o...#oo..oo@....o...#oo..oo",
"<o.##....#o........##....#o.....<o.##....#o........##....#o.....<o.##....#o........##....#o...o<...##....#o........##....#o.....",
"<<+oo#..o#........#oo#..o#......<<+oo#..o#........#oo#..o#......<<+oo#..o#........#oo#..o#....#<..#oo#..o#........#oo#..o#......",
"<@oooo#o......ooo#oooo#o......oo<@oooo#o......ooo#oooo#o......oo<@oooo#o......ooo#oooo#o.....@<<o#oooo#o......ooo#oooo#o......oo",
"<+o..o#..oo.o...o#o..o#..oo.o...<+o..o#..oo.o...o#o..o#..oo.o...<+o..o#..oo.o...o#o..o#..oo.@<<<o#o..o#..oo.o...o#o..o#..oo.o...",
"<oo...........#.oo............#.<oo...........#.oo............#.<oo...........#.oo..........+$%<oo............#.oo............#.",
"<<@.o...##...#o#o...o...##...#o#<<@.o...##...#o#o...o...##...#o#<<@.o...##...#o#o...o...##...+o$o...o...##...#o#o...o...##...#o#",
"<@+....#oo#..o...#.....#oo#..o..<@+....#oo#..o...#.....#oo#..o..<@+....#oo#..o...#.....#oo#..o.o.#.....#oo#..o...#.....#oo#..o..",
"$o#o.o.o..o..##.#o#o.o.o..o..##.$o#o.o.o..o..##.#o#o.o.o..o..##.$o#o.o.o..o..##.#o#o.o.o..o..#+<#o#o.o.o..o..##.#o#o.o.o..o..##.",
"+.....##....#oo#o.....##....#oo#+.....##....#oo#o.....##....#oo#+.....##....#oo#o.....##....#oo@o.....##....#oo#o.....##....#oo#",
"o.o..#oo#..#ooo<o.o..#oo#..#ooooo.o..#oo#..#ooooo.o..#oo#..#ooooo.o..#oo#..#ooo<o.o..#oo#..#ooo<o.o..#oo#..#ooo<o.o..#oo#..#ooo<",
"<oo<#oooo#<o<o<<<o..#oooo#.#o...<o..#oooo#.#o...##..#oooo#.#o...<o..#oooo#.#.o<<##..#oooo#.#.o<<<oo<#oooo#<o<o<<<oo<#oooo#<o<o<<",
"<<.<<#o..<<<<.<<<<o..#o..#....##<<o..#o..#....##oo#..#o..#....##<<o..#o..#...#<<oo#..#o..#...#<<<<.<<#o..<<<<.<<<<.<<#o..<<<<.<<"
};
